<?xml version="1.0" encoding="UTF-8" standalone="no"?>
<!-- Created with Inkscape (http://www.inkscape.org/) -->

<svg
   version="1.1"
   id="svg1282"
   width="188.02405"
   height="53.423317"
   viewBox="0 0 188.02405 53.423319"
   sodipodi:docname="blueballonX2.svg"
   inkscape:version="1.1.2 (0a00cf5339, 2022-02-04)"
   xmlns:inkscape="http://www.inkscape.org/namespaces/inkscape"
   xmlns:sodipodi="http://sodipodi.sourceforge.net/DTD/sodipodi-0.dtd"
   xmlns="http://www.w3.org/2000/svg"
   xmlns:svg="http://www.w3.org/2000/svg">
  <defs
     id="defs1286" />
  <sodipodi:namedview
     id="namedview1284"
     pagecolor="#ffffff"
     bordercolor="#666666"
     borderopacity="1.0"
     inkscape:pageshadow="2"
     inkscape:pageopacity="0.0"
     inkscape:pagecheckerboard="0"
     showgrid="false"
     inkscape:zoom="1.9794171"
     inkscape:cx="75.779885"
     inkscape:cy="49.004326"
     inkscape:window-width="1920"
     inkscape:window-height="1011"
     inkscape:window-x="0"
     inkscape:window-y="32"
     inkscape:window-maximized="1"
     inkscape:current-layer="layer1"
     inkscape:lockguides="false"
     fit-margin-top="0"
     fit-margin-left="0"
     fit-margin-right="0"
     fit-margin-bottom="0" />
  <g
     inkscape:groupmode="layer"
     id="layer2"
     inkscape:label="layer_2"
     style="display:inline"
     transform="translate(58.213754,-36.597)">
    <path
       style="display:inline;fill:#2dfffa;fill-opacity:1;stroke:none;stroke-width:1.98658px;stroke-linecap:butt;stroke-linejoin:miter;stroke-opacity:1"
       d="m -55.926734,47.556638 c 0.15836,-1.27869 0.25101,-2.595804 0.8924,-3.800539 0.5125,-0.962557 1.35433,-1.845346 2.30572,-2.633428 0.98576,-0.816587 2.18108,-1.520645 3.45826,-2.115064 1.43632,-0.66849 2.99044,-1.262661 4.65392,-1.597511 1.89921,-0.382305 5.90208,-0.433722 5.90208,-0.433722 L 109.98279,36.6846 c 0,0 6.42814,0.681264 9.39689,1.530056 2.62074,0.749292 5.23713,1.701306 7.22028,3.085363 1.13752,0.793887 1.97876,1.80565 2.49217,2.859972 0.36778,0.755257 0.29721,1.581326 0.36962,2.376452 0.19661,2.158847 0.21652,26.518403 0.17501,28.681314 -0.0461,2.401754 0.65446,4.925378 -0.47081,7.198582 -0.63132,1.275345 -2.01366,2.338423 -3.37219,3.307215 -1.37565,0.980994 -3.01172,1.80006 -4.73925,2.465808 -1.51983,0.585706 -3.15341,1.089601 -4.86437,1.312071 -5.63642,0.73289 -17.548436,0.47481 -17.548436,0.47481 l -138.796538,-0.004 c 0,0 -2.04739,-0.362501 -3.31272,-0.628111 -0.83815,-0.175938 -2.84905,-0.874208 -3.63409,-1.142392 -0.79014,-0.269929 -2.22821,-0.983235 -2.22821,-0.983235 0,0 -1.87506,0.665408 -2.86274,0.914487 -0.78958,0.199114 -1.60197,0.369617 -2.43254,0.459505 -1.18289,0.128024 -3.58862,0.108905 -3.58862,0.108905 0,0 1.86432,-1.165914 2.49758,-1.901037 0.36614,-0.425003 0.63869,-0.908145 0.70892,-1.400085 0.25061,-1.755235 -0.90218,-3.479648 -1.06807,-5.239655 -0.32642,-3.463106 -0.27962,-29.146041 0.14857,-32.603872 z"
       id="path17370-5"
       sodipodi:nodetypes="sssssccaasssssssccsscsscsssss" />
  </g>
  <g
     inkscape:groupmode="layer"
     id="layer1"
     inkscape:label="layer_1"
     style="display:inline"
     transform="translate(58.213754,-36.597)">
    <path
       style="fill:#80fffd;fill-opacity:1;stroke:none;stroke-width:1.84216px;stroke-linecap:butt;stroke-linejoin:miter;stroke-opacity:1"
       d="m -55.530514,44.905815 c 0.15679,-0.762452 0.38813,-1.138194 1.22141,-2.15542 0.59823,-0.730296 1.63984,-1.698748 2.54602,-2.410211 0.93893,-0.737196 2.07747,-1.372804 3.29399,-1.909432 1.36807,-0.603498 2.84837,-1.139902 4.43282,-1.442197 1.80899,-0.345137 5.62172,-0.391555 5.62172,-0.391555 l 148.397344,0.0876 c 0,0 3.73768,0.853514 5.37132,1.560539 1.40461,0.607904 2.63316,1.399163 3.69266,2.255154 0.96623,0.780627 1.88477,1.630101 2.37379,2.581919 0.35031,0.681829 0.28309,1.427586 0.35207,2.145408 0.18727,1.948958 0.20622,3.904752 0.16669,5.85738 -0.0439,2.16825 0.62337,26.639659 -0.44845,28.691857 -0.60133,1.151353 -1.91799,2.111076 -3.212,2.985679 -1.31029,0.88562 -2.86865,1.625054 -4.51411,2.226077 -1.44763,0.528762 -3.00362,0.983667 -4.6333,1.184508 -5.36867,0.661637 -16.389902,-0.0011 -16.389902,-0.0011 l -133.123022,-0.02222 c 0,0 -2.46562,-0.348176 -3.67083,-0.587963 -0.79834,-0.158832 -1.60337,-0.319977 -2.35112,-0.562088 -0.75261,-0.243686 -2.12235,-0.887642 -2.12235,-0.887642 0,0 -1.5545,1.910073 -2.21775,2.415956 -0.86736,0.661584 -2.51706,1.046288 -3.26,1.247953 -1.36471,0.370439 -4.21024,0.925363 -4.21024,0.925363 0,0 1.21709,-0.778828 2.06527,-1.462085 0.21653,-0.174431 0.82742,-0.836218 1.0685,-1.61393 0.23536,-0.759265 0.10644,-1.632395 -0.12898,-1.99585 -0.94436,-1.458006 -0.91282,-3.82008 -1.08226,-5.76941 -0.87475,-10.063941 -0.44481,-20.234051 0.36449,-30.303467 0.0716,-0.890552 0.0757,-1.092117 0.39622,-2.650823 z"
       id="path17370"
       sodipodi:nodetypes="sssssccsssssssssccsscsscsssaas" />
  </g>
  <g
     inkscape:groupmode="layer"
     id="layer3"
     inkscape:label="layer_3"
     style="display:inline"
     transform="translate(60.316569)" />
</svg>
