<?xml version="1.0" encoding="UTF-8" standalone="no"?>
<!-- Created with Inkscape (http://www.inkscape.org/) -->

<svg
   version="1.1"
   id="svg1282"
   width="188.02405"
   height="31.230177"
   viewBox="0 0 188.02405 31.230178"
   sodipodi:docname="balon.svg"
   inkscape:version="1.1.2 (0a00cf5339, 2022-02-04)"
   xmlns:inkscape="http://www.inkscape.org/namespaces/inkscape"
   xmlns:sodipodi="http://sodipodi.sourceforge.net/DTD/sodipodi-0.dtd"
   xmlns="http://www.w3.org/2000/svg"
   xmlns:svg="http://www.w3.org/2000/svg">
  <defs
     id="defs1286" />
  <sodipodi:namedview
     id="namedview1284"
     pagecolor="#ffffff"
     bordercolor="#666666"
     borderopacity="1.0"
     inkscape:pageshadow="2"
     inkscape:pageopacity="0.0"
     inkscape:pagecheckerboard="0"
     showgrid="false"
     inkscape:zoom="1.9794171"
     inkscape:cx="75.779883"
     inkscape:cy="49.004325"
     inkscape:window-width="1366"
     inkscape:window-height="699"
     inkscape:window-x="0"
     inkscape:window-y="32"
     inkscape:window-maximized="1"
     inkscape:current-layer="layer1"
     inkscape:lockguides="false"
     fit-margin-top="0"
     fit-margin-left="0"
     fit-margin-right="0"
     fit-margin-bottom="0" />
  <g
     inkscape:groupmode="layer"
     id="layer2"
     inkscape:label="layer_2"
     style="display:inline"
     transform="translate(58.213754,-36.597)">
    <path
       style="display:inline;fill:#61ff61;fill-opacity:1;stroke:none;stroke-width:1.98658px;stroke-linecap:butt;stroke-linejoin:miter;stroke-opacity:1"
       d="m 127.52328,47.556638 c -0.15836,-1.27869 -0.25101,-2.595804 -0.8924,-3.800539 -0.5125,-0.962557 -1.35433,-1.845346 -2.30572,-2.633428 -0.98576,-0.816587 -2.18108,-1.520645 -3.45826,-2.115064 -1.43632,-0.66849 -2.99044,-1.262661 -4.65392,-1.597511 -1.89921,-0.382305 -5.90208,-0.433722 -5.90208,-0.433722 L -38.386242,36.6846 c 0,0 -6.428147,0.681264 -9.396892,1.530056 -2.620736,0.749292 -5.237134,1.701306 -7.220276,3.085363 -1.13752,0.793887 -1.978761,1.80565 -2.492172,2.859972 -0.36778,0.755257 -0.297208,1.581326 -0.369624,2.376452 -0.19661,2.158847 -0.216514,4.325265 -0.175006,6.488176 0.0461,2.401754 -0.654464,4.925378 0.470812,7.198582 0.631317,1.275345 2.013651,2.338423 3.372188,3.307215 1.375644,0.980994 3.011714,1.80006 4.739245,2.465808 1.519828,0.585706 3.153417,1.089601 4.864371,1.312071 5.636421,0.73289 17.548438,0.47481 17.548438,0.47481 l 138.796538,-0.004 c 0,0 2.04739,-0.362501 3.31272,-0.628111 0.83815,-0.175938 2.84905,-0.874208 3.63409,-1.142392 0.79014,-0.269929 2.22821,-0.983235 2.22821,-0.983235 0,0 1.87506,0.665408 2.86274,0.914487 0.78958,0.199114 1.60197,0.369617 2.43254,0.459505 1.18289,0.128024 3.58862,0.108905 3.58862,0.108905 0,0 -1.86432,-1.165914 -2.49758,-1.901037 -0.36614,-0.425003 -0.63869,-0.908145 -0.70892,-1.400085 -0.25061,-1.755235 0.90218,-3.479648 1.06807,-5.239655 0.32642,-3.463106 0.27962,-6.952903 -0.14857,-10.410734 z"
       id="path17370-5"
       sodipodi:nodetypes="sssssccaasssssssccsscsscsssss" />
  </g>
  <g
     inkscape:groupmode="layer"
     id="layer1"
     inkscape:label="layer_1"
     style="display:inline"
     transform="translate(58.213754,-36.597)">
    <path
       style="fill:#80ff80;fill-opacity:1;stroke:none;stroke-width:1.84216px;stroke-linecap:butt;stroke-linejoin:miter;stroke-opacity:1"
       d="m 127.12706,44.905815 c -0.15679,-0.762452 -0.38813,-1.138194 -1.22141,-2.15542 -0.59823,-0.730296 -1.63984,-1.698748 -2.54602,-2.410211 -0.93893,-0.737196 -2.07747,-1.372804 -3.29399,-1.909432 -1.36807,-0.603498 -2.84837,-1.139902 -4.43282,-1.442197 C 113.82383,36.643418 110.0111,36.597 110.0111,36.597 l -148.397342,0.0876 c 0,0 -3.737687,0.853514 -5.371323,1.560539 -1.40461,0.607904 -2.63316,1.399163 -3.692664,2.255154 -0.966223,0.780627 -1.884763,1.630101 -2.373785,2.581919 -0.35031,0.681829 -0.28309,1.427586 -0.352066,2.145408 -0.18727,1.948958 -0.206229,3.904752 -0.166693,5.85738 0.04391,2.16825 -0.623375,4.446521 0.448447,6.498719 0.601327,1.151353 1.917996,2.111076 3.211998,2.985679 1.310297,0.88562 2.868649,1.625054 4.514114,2.226077 1.447631,0.528762 3.003621,0.983667 4.633298,1.184508 5.368673,0.661637 16.389904,-0.0011 16.389904,-0.0011 l 133.123022,-0.02222 c 0,0 2.46562,-0.348176 3.67083,-0.587963 0.79834,-0.158832 1.60337,-0.319977 2.35112,-0.562088 0.75261,-0.243686 2.12235,-0.887642 2.12235,-0.887642 0,0 1.5545,1.910073 2.21775,2.415956 0.86736,0.661584 2.51706,1.046288 3.26,1.247953 1.36471,0.370439 4.21024,0.925363 4.21024,0.925363 0,0 -1.21709,-0.778828 -2.06527,-1.462085 -0.21653,-0.174431 -0.82742,-0.836218 -1.0685,-1.61393 -0.23536,-0.759265 -0.10644,-1.632395 0.12898,-1.99585 0.94436,-1.458006 0.94499,-3.83297 1.08226,-5.76941 0.19149,-2.701573 -0.10247,-5.411488 -0.36449,-8.110329 -0.086,-0.886225 -0.0757,-1.092117 -0.39622,-2.650823 z"
       id="path17370"
       sodipodi:nodetypes="sssssccsssssssssccsscsscsssaas" />
  </g>
  <g
     inkscape:groupmode="layer"
     id="layer3"
     inkscape:label="layer_3"
     style="display:inline"
     transform="translate(60.316569)" />
</svg>
